ffmpeg version 3.4.8-0ubuntu0.2 Copyright (c) 2000-2020 the FFmpeg developers
  built with gcc 7 (Ubuntu 7.5.0-3ubuntu1~18.04)
  configuration: --prefix=/usr --extra-version=0ubuntu0.2 --toolchain=hardened --libdir=/usr/lib/x86_64-linux-gnu --incdir=/usr/include/x86_64-linux-gnu --enable-gpl --disable-stripping --enable-avresample --enable-avisynth --enable-gnutls --enable-ladspa --enable-libass --enable-libbluray --enable-libbs2b --enable-libcaca --enable-libcdio --enable-libflite --enable-libfontconfig --enable-libfreetype --enable-libfribidi --enable-libgme --enable-libgsm --enable-libmp3lame --enable-libmysofa --enable-libopenjpeg --enable-libopenmpt --enable-libopus --enable-libpulse --enable-librubberband --enable-librsvg --enable-libshine --enable-libsnappy --enable-libsoxr --enable-libspeex --enable-libssh --enable-libtheora --enable-libtwolame --enable-libvorbis --enable-libvpx --enable-libwavpack --enable-libwebp --enable-libx265 --enable-libxml2 --enable-libxvid --enable-libzmq --enable-libzvbi --enable-omx --enable-openal --enable-opengl --enable-sdl2 --enable-libdc1394 --enable-libdrm --enable-libiec61883 --enable-chromaprint --enable-frei0r --enable-libopencv --enable-libx264 --enable-shared
  libavutil      55. 78.100 / 55. 78.100
  libavcodec     57.107.100 / 57.107.100
  libavformat    57. 83.100 / 57. 83.100
  libavdevice    57. 10.100 / 57. 10.100
  libavfilter     6.107.100 /  6.107.100
  libavresample   3.  7.  0 /  3.  7.  0
  libswscale      4.  8.100 /  4.  8.100
  libswresample   2.  9.100 /  2.  9.100
  libpostproc    54.  7.100 / 54.  7.100
[rawvideo @ 0x56439594aa20] Estimating duration from bitrate, this may be inaccurate
Input #0, rawvideo, from '../../SVC-Encoder-20220109T061506Z-001/SVC-Encoder/Dataset/RollerCoaster/ERP_8x8/tile_yuv/Tile_50_480x240.yuv':
  Duration: 00:00:10.00, start: 0.000000, bitrate: 41472 kb/s
    Stream #0:0: Video: rawvideo (I420 / 0x30323449), yuv420p, 480x240, 41472 kb/s, 30 tbr, 30 tbn, 30 tbc
Stream mapping:
  Stream #0:0 -> #0:0 (rawvideo (native) -> h264 (libx264))
Press [q] to stop, [?] for help
[libx264 @ 0x564395957c60] using cpu capabilities: MMX2 SSE2Fast LZCNT SSSE3 SSE4.2 AVX
[libx264 @ 0x564395957c60] profile High, level 2.1
Output #0, rawvideo, to 'RollerCoaster_Tile_50_480x240_x264_QP_28.h264':
  Metadata:
    encoder         : Lavf57.83.100
    Stream #0:0: Video: h264 (libx264), yuv420p, 480x240, q=-1--1, 30 fps, 30 tbn, 30 tbc
    Metadata:
      encoder         : Lavc57.107.100 libx264
    Side data:
      cpb: bitrate max/min/avg: 0/0/0 buffer size: 0 vbv_delay: -1
frame=  243 fps=0.0 q=34.0 PSNR=Y:nan U:nan V:nan *:nan size=      51kB time=00:00:06.66 bitrate=  62.4kbits/s speed=13.2x    frame=  300 fps=0.0 q=34.0 LPSNR=Y:inf U:inf V:inf *:inf size=      75kB time=00:00:09.93 bitrate=  62.1kbits/s speed=14.7x    
video:75kB audio:0kB subtitle:0kB other streams:0kB global headers:0kB muxing overhead: 0.000000%
[libx264 @ 0x564395957c60] frame I:2     Avg QP:26.43  size:  5532  PSNR Mean Y:46.84 U:45.87 V:45.77 Avg:46.46 Global:46.44
[libx264 @ 0x564395957c60] frame P:76    Avg QP:26.60  size:   506  PSNR Mean Y:45.25 U:46.32 V:45.63 Avg:45.47 Global:45.45
[libx264 @ 0x564395957c60] frame B:222   Avg QP:33.40  size:   124  PSNR Mean Y:44.79 U:46.24 V:45.51 Avg:45.11 Global:45.09
[libx264 @ 0x564395957c60] consecutive B-frames:  1.0%  0.7%  1.0% 97.3%
[libx264 @ 0x564395957c60] mb I  I16..4: 53.6% 23.0% 23.4%
[libx264 @ 0x564395957c60] mb P  I16..4:  1.5%  1.1%  0.0%  P16..4: 32.0%  5.6%  0.7%  0.0%  0.0%    skip:59.1%
[libx264 @ 0x564395957c60] mb B  I16..4:  0.0%  0.0%  0.0%  B16..8: 20.5%  0.5%  0.0%  direct: 0.0%  skip:79.1%  L0:45.1% L1:54.4% BI: 0.5%
[libx264 @ 0x564395957c60] 8x8 transform intra:31.6% inter:85.3%
[libx264 @ 0x564395957c60] coded y,uvDC,uvAC intra: 17.2% 35.7% 17.6% inter: 1.3% 2.7% 0.1%
[libx264 @ 0x564395957c60] i16 v,h,dc,p: 47% 38% 11%  4%
[libx264 @ 0x564395957c60] i8 v,h,dc,ddl,ddr,vr,hd,vl,hu:  2% 20% 69%  1%  0%  1%  1%  0%  5%
[libx264 @ 0x564395957c60] i4 v,h,dc,ddl,ddr,vr,hd,vl,hu:  7% 58% 15%  2%  1%  1%  6%  0% 10%
[libx264 @ 0x564395957c60] i8c dc,h,v,p: 53% 37%  8%  2%
[libx264 @ 0x564395957c60] Weighted P-Frames: Y:0.0% UV:0.0%
[libx264 @ 0x564395957c60] ref P L0: 57.6% 10.9% 22.6%  9.0%
[libx264 @ 0x564395957c60] ref B L0: 68.0% 25.5%  6.5%
[libx264 @ 0x564395957c60] ref B L1: 80.9% 19.1%
[libx264 @ 0x564395957c60] PSNR Mean Y:44.924 U:46.256 V:45.544 Avg:45.211 Global:45.189 kb/s:61.68
